<?xml version="1.0" encoding="UTF-8" standalone="no"?>
<!-- Created with Inkscape (http://www.inkscape.org/) -->

<svg
   width="61.044247mm"
   height="61.044548mm"
   viewBox="0 0 61.044247 61.044548"
   version="1.1"
   id="svg1"
   inkscape:version="1.3.2 (091e20e, 2023-11-25, custom)"
   sodipodi:docname="dessin.svg"
   xmlns:inkscape="http://www.inkscape.org/namespaces/inkscape"
   xmlns:sodipodi="http://sodipodi.sourceforge.net/DTD/sodipodi-0.dtd"
   xmlns="http://www.w3.org/2000/svg"
   xmlns:svg="http://www.w3.org/2000/svg">
  <sodipodi:namedview
     id="namedview1"
     pagecolor="#505050"
     bordercolor="#eeeeee"
     borderopacity="1"
     inkscape:showpageshadow="0"
     inkscape:pageopacity="0"
     inkscape:pagecheckerboard="0"
     inkscape:deskcolor="#d1d1d1"
     inkscape:document-units="mm"
     inkscape:zoom="0.97134926"
     inkscape:cx="146.70315"
     inkscape:cy="276.41963"
     inkscape:window-width="1920"
     inkscape:window-height="1009"
     inkscape:window-x="-8"
     inkscape:window-y="-8"
     inkscape:window-maximized="1"
     inkscape:current-layer="layer1" />
  <defs
     id="defs1" />
  <g
     inkscape:label="Calque 1"
     inkscape:groupmode="layer"
     id="layer1"
     transform="translate(-57.884625,-74.833677)">
    <path
       id="rect1"
       style="fill:#16bc8b;fill-opacity:1;stroke:none;stroke-width:1.14888;stroke-linecap:round;stroke-linejoin:round;stroke-opacity:0.743295;paint-order:stroke fill markers"
       d="M 114.12305 78.108413 C 113.53224 78.108413 112.94175 78.334733 112.48904 78.787441 L 95.546409 95.730076 C 94.088299 94.284713 92.087346 93.385516 89.862518 93.385516 L 87.412022 93.385516 L 85.679828 91.653322 C 84.097283 90.070777 82.031798 89.279307 79.966481 89.279307 C 77.901158 89.279301 75.835687 90.07077 74.253135 91.653322 L 72.520941 93.385516 L 70.070444 93.385516 C 65.594317 93.385522 61.99084 96.98951 61.990834 101.46564 L 61.990834 103.91562 L 60.258124 105.64833 C 57.093019 108.81344 57.093024 113.90941 60.258124 117.07451 L 61.990834 118.80722 L 61.990834 121.25772 C 61.990836 123.48265 62.889908 125.48299 64.335394 126.94109 L 61.552618 129.72387 C 60.647203 130.62928 60.647203 132.0875 61.552618 132.99292 C 62.458033 133.89833 63.915737 133.89833 64.821153 132.99292 L 80.991742 116.82233 C 82.445194 118.2366 84.423272 119.1147 86.620855 119.1147 L 89.071352 119.1147 L 90.803546 120.84741 C 92.38609 122.42995 94.451575 123.22142 96.516892 123.22142 C 98.582215 123.22143 100.64768 122.42995 102.23024 120.84741 L 103.96295 119.1147 L 106.41293 119.1147 C 110.88905 119.11469 114.49253 115.51122 114.49254 111.03508 L 114.49254 108.58459 L 116.22525 106.85239 C 119.39036 103.68729 119.39035 98.590795 116.22525 95.425702 L 114.49254 93.693508 L 114.49254 91.243011 C 114.49254 89.045377 113.614 87.067837 112.19966 85.614414 L 115.75758 82.056492 C 116.66299 81.151077 116.66299 79.692856 115.75758 78.787441 C 115.30487 78.334733 114.71386 78.108413 114.12305 78.108413 z M 109.34608 88.467987 C 109.94285 89.102474 110.31242 89.952909 110.31243 90.896779 L 110.31243 95.425185 L 113.5143 98.627057 C 114.90618 100.01894 114.90618 102.25968 113.5143 103.65156 L 110.31243 106.85343 L 110.31243 111.38132 C 110.31244 113.34975 108.72759 114.9346 106.75916 114.93459 L 102.23127 114.93459 L 99.0294 118.13646 C 98.33346 118.8324 97.425132 119.18031 96.516892 119.18032 C 95.608653 119.18032 94.700836 118.8324 94.004901 118.13646 L 90.803029 114.93459 L 86.274623 114.93459 C 85.330795 114.93459 84.480318 114.56498 83.845831 113.96824 L 109.34608 88.467987 z M 79.966481 93.320404 C 80.87472 93.320404 81.782537 93.668333 82.478473 94.364268 L 85.680344 97.56614 L 90.20875 97.56614 C 91.179791 97.566141 92.051583 97.957732 92.691286 98.585199 L 67.19 124.08648 C 66.562348 123.44676 66.170945 122.57517 66.170941 121.60395 L 66.170941 117.07554 L 62.969069 113.87367 C 61.577195 112.48179 61.577185 110.24053 62.969069 108.84866 L 66.170941 105.6473 L 66.170941 101.11941 C 66.170937 99.150987 67.755791 97.566135 69.724212 97.56614 L 74.252101 97.56614 L 77.453973 94.364268 C 78.149913 93.668328 79.058241 93.320405 79.966481 93.320404 z " />
  </g>
</svg>
