<?xml version="1.0" encoding="UTF-8" standalone="no"?>
<!-- Created with Inkscape (http://www.inkscape.org/) -->

<svg
   width="61.044mm"
   height="61.045mm"
   version="1.1"
   viewBox="0 0 61.044 61.045"
   id="svg1"
   sodipodi:docname="dessin-2.svg"
   inkscape:version="1.3.2 (091e20e, 2023-11-25, custom)"
   xmlns:inkscape="http://www.inkscape.org/namespaces/inkscape"
   xmlns:sodipodi="http://sodipodi.sourceforge.net/DTD/sodipodi-0.dtd"
   xmlns="http://www.w3.org/2000/svg"
   xmlns:svg="http://www.w3.org/2000/svg">
  <defs
     id="defs1" />
  <sodipodi:namedview
     id="namedview1"
     pagecolor="#505050"
     bordercolor="#eeeeee"
     borderopacity="1"
     inkscape:showpageshadow="0"
     inkscape:pageopacity="0"
     inkscape:pagecheckerboard="0"
     inkscape:deskcolor="#d1d1d1"
     inkscape:document-units="mm"
     inkscape:zoom="0.56469249"
     inkscape:cx="149.63897"
     inkscape:cy="372.76926"
     inkscape:window-width="1920"
     inkscape:window-height="1009"
     inkscape:window-x="-8"
     inkscape:window-y="-8"
     inkscape:window-maximized="1"
     inkscape:current-layer="svg1" />
  <g
     transform="translate(-57.885 -74.834)"
     id="g1">
    <path
       transform="rotate(45)"
       d="m115.43-9.5973c-2.0186 2.0186-3.2635 4.8106-3.2635 7.9041v3.3866l-2.3949 2.3949c-4.3748 4.3749-4.3748 11.419 0 15.794l2.3949 2.3949v3.3866c0 6.187 4.981 11.168 11.168 11.168h3.3866l2.3949 2.3949c2.2387 2.2387 5.1762 3.3236 8.0974 3.2711v-5.5856c-1.3215 0.054169-2.6602-0.41949-3.6734-1.4328l-4.4258-4.4258h-6.2587c-2.7208-3e-6 -4.9111-2.1903-4.9111-4.9111v-6.2587l-4.4254-4.4255c-1.9239-1.9239-1.9239-5.0218 0-6.9457l4.4254-4.4255v-6.2587c0-1.3604 0.54763-2.5881 1.4353-3.4758 0.88769-0.88769 2.1154-1.4353 3.4758-1.4353h6.2587l4.4258-4.4258c1.0132-1.0132 2.352-1.4869 3.6734-1.4328v-5.5864c-2.9211-0.052407-5.8588 1.0332-8.0974 3.2719l-2.3949 2.3949h-3.3866c-3.0935 0-5.8859 1.2452-7.9045 3.2638z"
       fill="#16bc8b"
       style="paint-order:stroke fill markers"
       id="path1" />
  </g>
  <g
     transform="rotate(180,59.57715,68.052123)"
     id="g2">
    <path
       transform="rotate(45)"
       d="m 115.43,-9.5973 c -2.0186,2.0186 -3.2635,4.8106 -3.2635,7.9041 v 3.3866 l -2.3949,2.3949 c -4.3748,4.3749 -4.3748,11.419 0,15.794 l 2.3949,2.3949 v 3.3866 c 0,6.187 4.981,11.168 11.168,11.168 h 3.3866 l 2.3949,2.3949 c 2.2387,2.2387 5.1762,3.3236 8.0974,3.2711 v -5.5856 c -1.3215,0.05417 -2.6602,-0.41949 -3.6734,-1.4328 l -4.4258,-4.4258 h -6.2587 c -2.7208,-3e-6 -4.9111,-2.1903 -4.9111,-4.9111 v -6.2587 l -4.4254,-4.4255 c -1.9239,-1.9239 -1.9239,-5.0218 0,-6.9457 l 4.4254,-4.4255 v -6.2587 c 0,-1.3604 0.54763,-2.5881 1.4353,-3.4758 0.88769,-0.88769 2.1154,-1.4353 3.4758,-1.4353 h 6.2587 l 4.4258,-4.4258 c 1.0132,-1.0132 2.352,-1.4869 3.6734,-1.4328 v -5.5864 c -2.9211,-0.05241 -5.8588,1.0332 -8.0974,3.2719 l -2.3949,2.3949 h -3.3866 c -3.0935,0 -5.8859,1.2452 -7.9045,3.2638 z"
       fill="#16bc8b"
       style="paint-order:stroke fill markers"
       id="path2" />
  </g>
</svg>
