<?xml version="1.0" encoding="UTF-8" standalone="no"?>
<!-- Created with Inkscape (http://www.inkscape.org/) -->

<svg
   width="4.5450029mm"
   height="4.5450072mm"
   viewBox="0 0 4.545003 4.5450072"
   version="1.1"
   id="svg1"
   xml:space="preserve"
   inkscape:version="1.3.2 (091e20e, 2023-11-25, custom)"
   sodipodi:docname="a_code_white_patern.svg"
   xmlns:inkscape="http://www.inkscape.org/namespaces/inkscape"
   xmlns:sodipodi="http://sodipodi.sourceforge.net/DTD/sodipodi-0.dtd"
   xmlns="http://www.w3.org/2000/svg"
   xmlns:svg="http://www.w3.org/2000/svg"><sodipodi:namedview
     id="namedview1"
     pagecolor="#505050"
     bordercolor="#eeeeee"
     borderopacity="1"
     inkscape:showpageshadow="0"
     inkscape:pageopacity="0"
     inkscape:pagecheckerboard="0"
     inkscape:deskcolor="#d1d1d1"
     inkscape:document-units="mm"
     inkscape:zoom="14.999861"
     inkscape:cx="6.333392"
     inkscape:cy="19.900184"
     inkscape:window-width="1920"
     inkscape:window-height="974"
     inkscape:window-x="-11"
     inkscape:window-y="-11"
     inkscape:window-maximized="1"
     inkscape:current-layer="g10" /><defs
     id="defs1" /><g
     inkscape:label="Calque 1"
     inkscape:groupmode="layer"
     id="layer1"
     transform="translate(35.264963,-23.404023)"><path
       id="path3-3-7"
       style="fill:#313d49;fill-opacity:1;stroke-width:0.0180727"
       d="m -29.235884,24.889131 c -0.01986,-1.76e-4 -0.03966,0.0022 -0.05098,0.0069 -0.0371,0.01547 -0.687018,0.408265 -0.706115,0.426768 -0.01102,0.01067 -0.02527,0.03067 -0.03134,0.0441 l -0.01102,0.02411 v 0.425735 0.425391 l 0.01378,0.0279 c 0.0076,0.01521 0.02295,0.03569 0.0341,0.04546 0.01115,0.0098 0.145042,0.09207 0.297256,0.183246 0.370758,0.222083 0.397204,0.237835 0.414714,0.242834 0.02427,0.007 0.06714,0.0058 0.08714,-0.0024 0.03342,-0.01377 0.690411,-0.410307 0.708181,-0.427458 0.0095,-0.0092 0.02284,-0.02859 0.02962,-0.04305 l 0.0124,-0.02652 0.0014,-0.419191 0.0014,-0.418846 -0.01068,-0.0279 c -0.01931,-0.05161 -0.02539,-0.0562 -0.386469,-0.272457 -0.18278,-0.10947 -0.340803,-0.20268 -0.351335,-0.207013 -0.01202,-0.0049 -0.03214,-0.0074 -0.05201,-0.0076 z m 0,0.262123 c 0.01426,1.27e-4 0.02891,0.002 0.03754,0.0055 0.0075,0.0031 0.120913,0.06986 0.252134,0.148456 0.259221,0.15525 0.263762,0.158252 0.277624,0.195302 l 0.0076,0.01998 -9.6e-4,0.301046 -0.001,0.301045 -0.009,0.0186 c -0.0049,0.01038 -0.01451,0.02439 -0.02135,0.031 -0.01276,0.01231 -0.484065,0.297019 -0.508058,0.306902 -0.01437,0.0059 -0.04526,0.0067 -0.06269,0.0018 -0.01257,-0.0036 -0.03178,-0.01451 -0.297946,-0.173946 -0.109275,-0.06546 -0.205207,-0.124903 -0.213212,-0.131922 -0.008,-0.007 -0.01902,-0.0218 -0.02446,-0.03272 l -0.01,-0.01964 v -0.305524 -0.305524 l 0.0079,-0.01757 c 0.0043,-0.0096 0.01447,-0.02368 0.02239,-0.03134 0.01371,-0.01329 0.480396,-0.295451 0.507025,-0.306558 0.0081,-0.0034 0.02225,-0.005 0.03651,-0.0048 z" /><g
       id="g10"
       transform="matrix(0.13815185,0,0,0.13815185,-29.718454,33.273618)"
       style="fill:#313d49;fill-opacity:1"><path
         style="fill:#313d49;fill-opacity:1;stroke-width:0.188967"
         d="m -34.00969,32.379463 c -0.210636,-0.06075 -0.214035,-0.06269 -2.285487,-1.305028 -0.962453,-0.577225 -1.907407,-1.142057 -2.099897,-1.255184 -0.192491,-0.113127 -0.496226,-0.298646 -0.674967,-0.412262 -0.178742,-0.113617 -0.42623,-0.262975 -0.549973,-0.331908 -0.722533,-0.402492 -1.605871,-0.957627 -1.804034,-1.133748 -0.126011,-0.111993 -0.294753,-0.322102 -0.374982,-0.466906 l -0.145871,-0.26328 v -4.49978 c 0,-4.928887 -0.02178,-4.565169 0.299985,-5.009829 0.197609,-0.273084 0.215489,-0.284451 4.107004,-2.610905 3.012792,-1.801127 3.38877,-2.012517 3.66646,-2.061431 0.599737,-0.105642 0.604035,-0.103641 3.475897,1.617064 1.42998,0.856786 2.903698,1.741449 3.27493,1.965916 0.371232,0.224468 0.813045,0.490632 0.981806,0.591475 0.362159,0.216407 0.638241,0.506738 0.786241,0.826818 0.106619,0.230583 0.106861,0.241224 0.106861,4.680892 v 4.449783 l -0.13584,0.274985 c -0.16995,0.344036 -0.36568,0.554946 -0.690837,0.744417 -0.06555,0.0382 -1.632715,0.978368 -3.482587,2.08927 -1.849872,1.110902 -3.456668,2.052728 -3.570659,2.092946 -0.230734,0.08141 -0.6333,0.08901 -0.88405,0.0167 z"
         id="path1" /><path
         style="fill:#313d49;fill-opacity:1;stroke-width:0.188967"
         d="m -23.656515,14.488546 c -0.183026,-0.05301 -0.459357,-0.214678 -4.335864,-2.536723 -1.591545,-0.953343 -2.989108,-1.816999 -3.105694,-1.919234 -0.116586,-0.1022346 -0.276841,-0.3159753 -0.356122,-0.4749761 L -31.598342,9.2685197 V 4.8187364 0.368954 l 0.115399,-0.25492859 c 0.06347,-0.14021079 0.209713,-0.34627588 0.324985,-0.45792239 0.199674,-0.19339598 6.996392,-4.30213592 7.384234,-4.46390392 0.236738,-0.098743 0.823533,-0.093631 1.074948,0.00937 0.109994,0.045061 1.763664,1.0184233 3.67482,2.1630277 3.775378,2.2610993 3.840764,2.30714266 4.042661,2.846758 l 0.109249,0.29199639 -0.01355,4.38258661 -0.01355,4.3825866 -0.129556,0.274985 c -0.07125,0.1512436 -0.211178,0.3537332 -0.310937,0.449978 -0.185823,0.1792786 -7.053294,4.3261066 -7.40273,4.4700366 -0.209202,0.08617 -0.660376,0.09852 -0.914135,0.02503 z"
         id="path3" /><path
         style="fill:#313d49;fill-opacity:1;stroke-width:0.188967"
         d="m -13.271451,32.3655 c -0.238661,-0.07467 -0.535429,-0.233531 -1.268606,-0.67908 -0.767809,-0.466592 -1.762236,-1.065336 -2.699868,-1.625592 -2.573289,-1.53759 -3.338292,-2.00887 -3.504196,-2.158755 -0.101479,-0.09168 -0.248881,-0.293921 -0.327559,-0.449426 l -0.143052,-0.282736 v -4.478735 -4.478735 l 0.136752,-0.25936 c 0.07521,-0.142647 0.213782,-0.334171 0.307933,-0.42561 0.09415,-0.09144 1.315053,-0.85019 2.713111,-1.686113 1.39806,-0.835924 2.789414,-1.670534 3.091899,-1.854688 1.596244,-0.971797 1.747629,-1.036974 2.279475,-0.981385 0.3664,0.0383 0.296864,0.0023 2.12031,1.096882 0.8249606,0.495196 1.5674239,0.939125 1.6499194,0.986509 0.082497,0.04739 0.6674678,0.396188 1.2999371,0.77512 2.783728,1.667819 2.7346079,1.63268 2.9687249,2.123655 l 0.1311243,0.274987 0.014513,4.224793 c 0.015363,4.470555 0.00565,4.70176 -0.2132267,5.074752 -0.2293495,0.390845 -0.033572,0.263509 -4.6397482,3.017725 -1.7889878,1.069707 -3.0212108,1.776149 -3.1498468,1.805834 -0.280236,0.06467 -0.516592,0.0585 -0.767601,-0.02004 z"
         id="path2" /><path
         style="fill:#313d49;fill-opacity:1;stroke-width:0.188967"
         d="M -3.1651398,14.488546 C -3.3481658,14.435537 -3.6244962,14.273868 -7.5010042,11.951823 -9.0925498,10.99848 -10.490113,10.134824 -10.606698,10.032589 -10.723285,9.9303544 -10.883539,9.7166137 -10.96282,9.5576129 L -11.106968,9.2685197 V 4.8187364 0.368954 l 0.1154,-0.25492802 c 0.06347,-0.14021174 0.209712,-0.34627664 0.324984,-0.45792259 0.199674,-0.19339597 6.9963936,-4.30213589 7.3842355,-4.46390389 0.236738,-0.098743 0.823532,-0.093631 1.0749471,0.00937 0.109994,0.045061 1.76366446,1.0184234 3.6748196,2.1630278 3.7753785,2.26109928 3.8407649,2.30714264 4.0426612,2.84675723 L 5.6193288,0.50334838 5.6057799,4.8859331 5.592231,9.2685197 5.4626751,9.5435047 c -0.071256,0.1512436 -0.2111784,0.3537332 -0.3109379,0.449978 -0.1858227,0.1792783 -7.0532933,4.3261063 -7.4027295,4.4700363 -0.2092017,0.08617 -0.6603759,0.09852 -0.9141342,0.02503 z"
         id="path3-2" /><path
         style="fill:#313d49;fill-opacity:1;stroke-width:0.188967"
         d="m -13.276808,-3.424389 c -0.183026,-0.053009 -0.459356,-0.214678 -4.335864,-2.5367233 -1.591546,-0.9533431 -2.989109,-1.8169985 -3.105694,-1.9192336 -0.116587,-0.102235 -0.276841,-0.3159757 -0.356122,-0.4749764 l -0.144148,-0.2890933 v -4.4497834 -4.449783 l 0.1154,-0.254928 c 0.06347,-0.140212 0.209712,-0.346277 0.324984,-0.457922 0.199674,-0.193397 6.996394,-4.302137 7.384235,-4.463905 0.236738,-0.09874 0.823532,-0.09363 1.074948,0.0094 0.109994,0.04506 1.763664,1.018422 3.6748192,2.163027 3.7753765,2.261099 3.8407648,2.307143 4.0426611,2.846758 l 0.1092495,0.291999 -0.013549,4.382585 -0.013549,4.3825864 -0.1295559,0.274985 c -0.071256,0.1512436 -0.2111783,0.3537332 -0.3109379,0.449978 -0.1858227,0.1792788 -7.053293,4.3261062 -7.402729,4.4700368 -0.209202,0.086169 -0.660376,0.098522 -0.914135,0.025027 z"
         id="path3-2-7" /><path
         style="fill:#313d49;fill-opacity:1;stroke-width:0.188967"
         d="m -34.016784,-3.4243935 c -0.183026,-0.053009 -0.459356,-0.214678 -4.335864,-2.5367234 -1.591546,-0.953343 -2.989109,-1.8169985 -3.105694,-1.9192335 -0.116587,-0.102235 -0.276841,-0.3159757 -0.356122,-0.4749765 l -0.144148,-0.2890933 v -4.4497828 -4.449784 l 0.1154,-0.254928 c 0.06347,-0.140212 0.209712,-0.346277 0.324984,-0.457922 0.199674,-0.193397 6.996394,-4.302136 7.384236,-4.463903 0.236738,-0.09875 0.823532,-0.09363 1.074947,0.0094 0.109994,0.04506 1.763664,1.018421 3.674819,2.163026 3.775379,2.261099 3.840765,2.307143 4.042661,2.846757 l 0.10925,0.292 -0.01355,4.382585 -0.01355,4.3825864 -0.129556,0.274985 c -0.07126,0.1512436 -0.211178,0.3537333 -0.310938,0.449978 -0.185822,0.1792788 -7.053293,4.3261062 -7.402729,4.4700368 -0.209202,0.086169 -0.660376,0.098522 -0.914134,0.025027 z"
         id="path3-2-7-9" /><path
         style="fill:#313d49;fill-opacity:1;stroke-width:0.188967"
         d="m -44.346139,14.488543 c -0.183026,-0.05301 -0.459356,-0.214678 -4.335865,-2.536724 -1.591546,-0.953343 -2.989109,-1.816998 -3.105694,-1.919233 -0.116587,-0.1022353 -0.276841,-0.3159761 -0.356122,-0.4749768 L -52.287968,9.2685159 V 4.8187326 0.36894984 l 0.1154,-0.25492802 c 0.06347,-0.14021174 0.209712,-0.34627663 0.324984,-0.45792409 0.199674,-0.19339465 6.996395,-4.30213573 7.384237,-4.46390293 0.236738,-0.098743 0.823532,-0.093631 1.074947,0.00937 0.109994,0.045061 1.763664,1.0184233 3.674818,2.1630276 3.775379,2.2610996 3.840765,2.30714334 4.042661,2.84675793 l 0.10925,0.29199714 -0.01355,4.38258663 -0.01355,4.3825865 -0.129556,0.274985 c -0.07126,0.1512437 -0.211178,0.3537333 -0.310938,0.4499781 -0.185823,0.1792783 -7.053292,4.3261063 -7.402728,4.4700363 -0.209202,0.08617 -0.660376,0.09852 -0.914134,0.02503 z"
         id="path3-8" /><path
         style="fill:#ffffff;fill-opacity:1;stroke-width:0.0704495"
         d="m -23.855686,-51.389644 c -0.06823,-0.01976 -0.171254,-0.08003 -1.616469,-0.945726 -0.593351,-0.355419 -1.114381,-0.677402 -1.157846,-0.715516 -0.04346,-0.03811 -0.10321,-0.117801 -0.132767,-0.177078 l -0.05374,-0.107778 v -1.65894 -1.658941 l 0.04302,-0.09504 c 0.02366,-0.05228 0.07818,-0.129097 0.121158,-0.17072 0.07444,-0.0721 2.608353,-1.603895 2.752945,-1.664204 0.08826,-0.03681 0.307025,-0.03491 0.400755,0.0035 0.04101,0.0168 0.657519,0.379681 1.370024,0.806405 1.407513,0.84297 1.431889,0.860136 1.507159,1.061311 l 0.04073,0.108861 -0.0051,1.633889 -0.0051,1.633888 -0.0483,0.102518 c -0.02657,0.05639 -0.07873,0.131877 -0.115923,0.167758 -0.06928,0.06684 -2.629564,1.612832 -2.759839,1.666492 -0.07799,0.03213 -0.246197,0.03673 -0.340802,0.0093 z"
         id="path3-2-7-9-7" /></g><rect
       style="display:inline;fill:none;stroke:#9799bc;stroke-width:0.0314097;stroke-linejoin:round;stroke-dasharray:none;paint-order:stroke fill markers"
       id="rect10"
       width="5.6611934"
       height="4.9609003"
       x="-35.772736"
       y="31.458912"
       ry="0.0012930551" /><path
       style="fill:#fed22b;fill-opacity:1;stroke-width:0.188967"
       d="m 42.457068,85.610837 c -0.210636,-0.0607 -0.214035,-0.0627 -2.285487,-1.30503 -0.962453,-0.57723 -1.907407,-1.14206 -2.099897,-1.25519 -0.192491,-0.11312 -0.496226,-0.29864 -0.674967,-0.41226 -0.178742,-0.11361 -0.42623,-0.26297 -0.549973,-0.33191 -0.722533,-0.40249 -1.605871,-0.95762 -1.804034,-1.13374 -0.126011,-0.112 -0.294753,-0.32211 -0.374982,-0.46691 l -0.145871,-0.26328 v -4.49978 c 0,-4.928886 -0.02178,-4.565168 0.299985,-5.009828 0.197609,-0.273084 0.215489,-0.284451 4.107004,-2.610905 3.012792,-1.801127 3.38877,-2.012517 3.66646,-2.061431 0.599737,-0.105642 0.604035,-0.103641 3.475897,1.617064 1.42998,0.856786 2.903698,1.741449 3.27493,1.965916 0.371232,0.224468 0.813045,0.490632 0.981806,0.591475 0.362159,0.216407 0.638241,0.506738 0.786241,0.826818 0.106619,0.230583 0.106861,0.241224 0.106861,4.680891 v 4.44978 l -0.13584,0.27499 c -0.16995,0.34403 -0.36568,0.55494 -0.690837,0.74442 -0.06555,0.0382 -1.632715,0.97836 -3.482587,2.08927 -1.849872,1.1109 -3.456668,2.05272 -3.570659,2.09294 -0.230734,0.0814 -0.6333,0.089 -0.88405,0.0167 z"
       id="path1-2" /><path
       style="fill:#fed22b;fill-opacity:1;stroke-width:0.188967"
       d="m 52.810243,67.719917 c -0.183026,-0.05301 -0.459357,-0.214678 -4.335864,-2.536723 -1.591545,-0.953343 -2.989108,-1.816999 -3.105694,-1.919234 -0.116586,-0.102235 -0.276841,-0.315975 -0.356122,-0.474976 l -0.144147,-0.289093 v -4.449784 -4.449782 l 0.115399,-0.254929 c 0.06347,-0.14021 0.209713,-0.346275 0.324985,-0.457922 0.199674,-0.193396 6.996392,-4.302136 7.384234,-4.463904 0.236738,-0.09874 0.823533,-0.09363 1.074948,0.0094 0.109994,0.04506 1.763664,1.018423 3.67482,2.163028 3.775378,2.261099 3.840764,2.307142 4.042661,2.846758 l 0.109249,0.291996 -0.01355,4.382587 -0.01355,4.382586 -0.129556,0.274985 c -0.07125,0.151244 -0.211178,0.353734 -0.310937,0.449978 -0.185823,0.179279 -7.053294,4.326107 -7.40273,4.470037 -0.209202,0.08617 -0.660376,0.09852 -0.914135,0.02503 z"
       id="path3-4" /><path
       style="fill:#fed22b;fill-opacity:1;stroke-width:0.188967"
       d="m 63.195307,85.596867 c -0.238661,-0.0747 -0.535429,-0.23353 -1.268606,-0.67908 -0.767809,-0.46659 -1.762236,-1.06533 -2.699868,-1.62559 -2.573289,-1.53759 -3.338292,-2.00887 -3.504196,-2.15875 -0.101479,-0.0917 -0.248881,-0.29392 -0.327559,-0.44943 l -0.143052,-0.28274 v -4.47873 -4.478735 l 0.136752,-0.25936 c 0.07521,-0.142647 0.213782,-0.334171 0.307933,-0.42561 0.09415,-0.09144 1.315053,-0.85019 2.713111,-1.686113 1.39806,-0.835924 2.789414,-1.670534 3.091899,-1.854688 1.596244,-0.971797 1.747629,-1.036974 2.279475,-0.981385 0.3664,0.0383 0.296864,0.0023 2.12031,1.096882 0.824961,0.495196 1.567424,0.939125 1.649919,0.986509 0.0825,0.04739 0.667468,0.396188 1.299937,0.77512 2.783728,1.667819 2.734608,1.63268 2.968725,2.123655 l 0.131125,0.274987 0.01451,4.224788 c 0.01536,4.47056 0.0057,4.70176 -0.213227,5.07476 -0.22935,0.39084 -0.03357,0.26351 -4.639748,3.01772 -1.788988,1.06971 -3.021211,1.77615 -3.149847,1.80584 -0.280236,0.0647 -0.516592,0.0585 -0.767601,-0.02 z"
       id="path2-4" /><path
       style="fill:#fed22b;fill-opacity:1;stroke-width:0.188967"
       d="M 73.301618,67.719917 C 73.118592,67.666908 72.842262,67.505239 68.965754,65.183194 67.374208,64.229851 65.976645,63.366195 65.86006,63.26396 65.743473,63.161725 65.583219,62.947985 65.503938,62.788984 L 65.35979,62.499891 v -4.449784 -4.449782 l 0.1154,-0.254928 c 0.06347,-0.140212 0.209712,-0.346277 0.324984,-0.457923 0.199674,-0.193396 6.996394,-4.302136 7.384235,-4.463904 0.236738,-0.09874 0.823532,-0.09363 1.074948,0.0094 0.109994,0.04506 1.763664,1.018424 3.674819,2.163028 3.775379,2.2611 3.840765,2.307143 4.042661,2.846758 l 0.10925,0.291993 -0.01355,4.382585 -0.01355,4.382587 -0.129556,0.274985 c -0.07126,0.151243 -0.211178,0.353733 -0.310938,0.449978 -0.185823,0.179278 -7.053293,4.326106 -7.402729,4.470036 -0.209202,0.08617 -0.660376,0.09852 -0.914135,0.02503 z"
       id="path3-2-0" /><path
       style="fill:#fed22b;fill-opacity:1;stroke-width:0.188967"
       d="M 63.18995,49.806982 C 63.006924,49.753973 62.730594,49.592304 58.854086,47.270259 57.26254,46.316916 55.864977,45.45326 55.748392,45.351025 55.631805,45.24879 55.471551,45.035049 55.39227,44.876049 l -0.144148,-0.289094 v -4.449783 -4.449783 l 0.1154,-0.254928 c 0.06347,-0.140212 0.209712,-0.346277 0.324984,-0.457922 0.199674,-0.193397 6.996394,-4.302137 7.384235,-4.463905 0.236738,-0.09874 0.823532,-0.09363 1.074948,0.0094 0.109994,0.04506 1.763664,1.018422 3.674819,2.163027 3.775377,2.261099 3.840765,2.307143 4.042661,2.846758 l 0.10925,0.291999 -0.01355,4.382585 -0.01355,4.382586 -0.129556,0.274985 c -0.07126,0.151244 -0.211178,0.353734 -0.310938,0.449978 -0.185823,0.179279 -7.053293,4.326107 -7.402729,4.470037 -0.209202,0.08617 -0.660376,0.09852 -0.914135,0.02503 z"
       id="path3-2-7-5" /><path
       style="fill:#fed22b;fill-opacity:1;stroke-width:0.188967"
       d="m 42.449974,49.806978 c -0.183026,-0.05301 -0.459356,-0.214679 -4.335864,-2.536724 -1.591546,-0.953343 -2.989109,-1.816998 -3.105694,-1.919233 -0.116587,-0.102235 -0.276841,-0.315976 -0.356122,-0.474977 l -0.144148,-0.289093 v -4.449783 -4.449784 l 0.1154,-0.254928 c 0.06347,-0.140212 0.209712,-0.346277 0.324984,-0.457922 0.199674,-0.193397 6.996394,-4.302136 7.384236,-4.463903 0.236738,-0.09875 0.823532,-0.09363 1.074947,0.0094 0.109994,0.04506 1.763664,1.018421 3.674819,2.163026 3.775379,2.261099 3.840765,2.307143 4.042661,2.846757 l 0.10925,0.292 -0.01355,4.382585 -0.01355,4.382586 -0.129556,0.274985 c -0.07126,0.151244 -0.211178,0.353734 -0.310938,0.449978 -0.185822,0.179279 -7.053293,4.326107 -7.402729,4.470037 -0.209202,0.08617 -0.660376,0.09852 -0.914134,0.02503 z"
       id="path3-2-7-9-4" /><path
       style="fill:#fed22b;fill-opacity:1;stroke-width:0.188967"
       d="M 32.120619,67.719914 C 31.937593,67.666904 31.661263,67.505236 27.784754,65.18319 26.193208,64.229847 24.795645,63.366192 24.67906,63.263957 24.562473,63.161722 24.402219,62.947981 24.322938,62.78898 L 24.17879,62.499887 v -4.449783 -4.449783 l 0.1154,-0.254928 c 0.06347,-0.140212 0.209712,-0.346277 0.324984,-0.457924 0.199674,-0.193395 6.996395,-4.302136 7.384237,-4.463903 0.236738,-0.09874 0.823532,-0.09363 1.074947,0.0094 0.109994,0.04506 1.763664,1.018423 3.674818,2.163027 3.775379,2.2611 3.840765,2.307144 4.042661,2.846758 l 0.10925,0.291997 -0.01355,4.382587 -0.01355,4.382587 -0.129556,0.274985 c -0.07126,0.151243 -0.211178,0.353733 -0.310938,0.449978 -0.185823,0.179278 -7.053292,4.326106 -7.402728,4.470036 -0.209202,0.08617 -0.660376,0.09852 -0.914134,0.02503 z"
       id="path3-8-5" /><rect
       style="display:none;fill:none;stroke:#9799bc;stroke-width:0.294601;stroke-linejoin:round;stroke-dasharray:none;paint-order:stroke fill markers"
       id="rect10-2"
       width="49.705399"
       height="49.705399"
       x="28.443695"
       y="33.250237"
       ry="0.012955675" /><rect
       style="display:none;fill:none;fill-opacity:1;stroke:#9799bc;stroke-width:0.2;stroke-linejoin:round;stroke-dasharray:none;paint-order:stroke fill markers"
       id="rect1"
       width="4.3450031"
       height="4.3450074"
       x="-35.164963"
       y="23.504023"
       ry="0.026751444" /></g></svg>
