<?xml version="1.0" encoding="UTF-8" standalone="no"?>
<!-- Created with Inkscape (http://www.inkscape.org/) -->

<svg
   width="154.99985mm"
   height="173.25397mm"
   viewBox="0 0 154.99985 173.25397"
   version="1.1"
   id="svg1"
   inkscape:version="1.3.2 (091e20e, 2023-11-25, custom)"
   sodipodi:docname="a_code_white.svg"
   xmlns:inkscape="http://www.inkscape.org/namespaces/inkscape"
   xmlns:sodipodi="http://sodipodi.sourceforge.net/DTD/sodipodi-0.dtd"
   xmlns="http://www.w3.org/2000/svg"
   xmlns:svg="http://www.w3.org/2000/svg">
  <sodipodi:namedview
     id="namedview1"
     pagecolor="#505050"
     bordercolor="#eeeeee"
     borderopacity="1"
     inkscape:showpageshadow="0"
     inkscape:pageopacity="0"
     inkscape:pagecheckerboard="0"
     inkscape:deskcolor="#d1d1d1"
     inkscape:document-units="mm"
     inkscape:zoom="0.62092452"
     inkscape:cx="400.20967"
     inkscape:cy="366.38914"
     inkscape:window-width="1920"
     inkscape:window-height="974"
     inkscape:window-x="-11"
     inkscape:window-y="-11"
     inkscape:window-maximized="1"
     inkscape:current-layer="layer1" />
  <defs
     id="defs1" />
  <g
     inkscape:label="Calque 1"
     inkscape:groupmode="layer"
     id="layer1"
     transform="translate(-115.04672,-29.913936)">
    <path
       id="path954-9"
       style="color:#000000;fill:#fffffe;stroke-width:0.803474;stroke-linecap:round;stroke-linejoin:round;-inkscape-stroke:none;paint-order:stroke markers fill"
       d="m 192.54742,29.913936 c -3.24768,-2.66e-4 -6.43839,0.854309 -9.25111,2.477885 l -58.99899,34.064071 c -5.72379,3.304616 -9.24979,9.411988 -9.2506,16.021244 v 68.127104 c 2.3e-4,6.60983 3.52631,12.71739 9.2506,16.02228 l 58.99899,34.06304 c 5.72409,3.30445 12.77658,3.30445 18.50067,0 L 260.797,166.62652 c 5.72369,-3.30529 9.24966,-9.41277 9.24957,-16.02228 V 82.477136 C 270.04608,75.868203 266.52019,69.760907 260.797,66.455892 L 201.79698,32.391821 c -2.81226,-1.623311 -6.00242,-2.477876 -9.24956,-2.477885 z m 0,11.177613 c 2.82815,0 5.60645,0.744092 8.05584,2.158007 l 51.38756,29.668991 c 4.98472,2.878559 8.05542,8.197494 8.05584,13.95367 v 59.336943 c 8e-5,5.75676 -3.0707,11.07586 -8.05584,13.95471 l -51.38756,29.66795 c -4.9855,2.87806 -11.12773,2.87806 -16.11323,0 l -51.38601,-29.66795 c -4.98567,-2.87849 -8.05719,-8.19773 -8.05739,-13.95471 V 86.872217 c 7e-4,-5.756466 3.07214,-11.075474 8.05739,-13.95367 l 51.38601,-29.668991 c 2.44979,-1.414133 5.22877,-2.158225 8.05739,-2.158007 z" />
    <g
       id="path954-9-5"
       inkscape:transform-center-x="1.1799488e-05"
       inkscape:transform-center-y="-1.9853307e-05"
       transform="matrix(0.72571846,0,0,0.72571846,-16.215837,-765.46027)" />
  </g>
</svg>
