<?xml version="1.0" encoding="UTF-8" standalone="no"?>
<!-- Created with Inkscape (http://www.inkscape.org/) -->

<svg
   width="145.42046mm"
   height="103.7447mm"
   viewBox="0 0 145.42046 103.7447"
   version="1.1"
   id="svg5"
   xml:space="preserve"
   inkscape:version="1.2 (dc2aedaf03, 2022-05-15)"
   sodipodi:docname="a_code_purple.svg"
   xmlns:inkscape="http://www.inkscape.org/namespaces/inkscape"
   xmlns:sodipodi="http://sodipodi.sourceforge.net/DTD/sodipodi-0.dtd"
   xmlns="http://www.w3.org/2000/svg"
   xmlns:svg="http://www.w3.org/2000/svg"><sodipodi:namedview
     id="namedview7"
     pagecolor="#505050"
     bordercolor="#eeeeee"
     borderopacity="1"
     inkscape:showpageshadow="0"
     inkscape:pageopacity="0"
     inkscape:pagecheckerboard="0"
     inkscape:deskcolor="#505050"
     inkscape:document-units="mm"
     showgrid="false"
     inkscape:zoom="1.021366"
     inkscape:cx="320.15948"
     inkscape:cy="288.82889"
     inkscape:window-width="1920"
     inkscape:window-height="986"
     inkscape:window-x="-11"
     inkscape:window-y="-11"
     inkscape:window-maximized="1"
     inkscape:current-layer="layer1" /><defs
     id="defs2" /><g
     inkscape:label="Calque 1"
     inkscape:groupmode="layer"
     id="layer1"
     transform="translate(145.9517,-115.29333)"><path
       id="path384"
       style="opacity:1;fill:#9799bc;stroke-width:13.4744;paint-order:stroke fill markers;fill-opacity:1"
       d="m -72.864803,89.35992 c 48.576535,-59.57328 24.288268,-29.78664 0,0 z m -2.314587,44.48411 -42.03361,84.89042 c 14.41925,1.69284 29.345578,2.55622 44.348197,2.56522 14.243634,-0.002 28.424087,-0.77356 42.172103,-2.29547 l -42.13593,-85.16017 z"
       sodipodi:nodetypes="cccccccc" /><g
       id="g210"
       transform="matrix(3.1765064,0,0,3.1765064,-462.51798,112.84742)"
       style="fill:#7d80ac;fill-opacity:1"><path
         d="m 153.68,48.9 a 5.6,5.6 0 1 1 -5.62,-5.58 5.61,5.61 0 0 1 5.62,5.58 z"
         transform="translate(-25.53,-24.64)"
         style="display:inline;fill:#7d80ac;fill-opacity:1"
         id="path192" /><path
         d="m 145.43863,32.26 a 40.12,40.12 0 0 1 -9.49,1.17 l -13.27,-26.82 h -0.74 l -13.28,26.82 A 36.38,36.38 0 0 1 99.658632,32.26 L 116.46863,0.77 h 12 z"
         style="display:inline;fill:#7d80ac;fill-opacity:1"
         id="path190" /></g></g></svg>
