<?xml version="1.0" encoding="UTF-8" standalone="no"?>
<!-- Created with Inkscape (http://www.inkscape.org/) -->

<svg
   width="381.9314mm"
   height="231.34735mm"
   viewBox="0 0 381.9314 231.34735"
   version="1.1"
   id="svg5"
   xml:space="preserve"
   inkscape:version="1.2.2 (732a01da63, 2022-12-09)"
   sodipodi:docname="dessin.svg"
   inkscape:export-filename="dessin.png"
   inkscape:export-xdpi="150.85995"
   inkscape:export-ydpi="150.85995"
   xmlns:inkscape="http://www.inkscape.org/namespaces/inkscape"
   xmlns:sodipodi="http://sodipodi.sourceforge.net/DTD/sodipodi-0.dtd"
   xmlns:xlink="http://www.w3.org/1999/xlink"
   xmlns="http://www.w3.org/2000/svg"
   xmlns:svg="http://www.w3.org/2000/svg"><sodipodi:namedview
     id="namedview7"
     pagecolor="#505050"
     bordercolor="#eeeeee"
     borderopacity="1"
     inkscape:showpageshadow="0"
     inkscape:pageopacity="0"
     inkscape:pagecheckerboard="0"
     inkscape:deskcolor="#505050"
     inkscape:document-units="mm"
     showgrid="false"
     inkscape:zoom="0.53858859"
     inkscape:cx="467.8896"
     inkscape:cy="406.61834"
     inkscape:window-width="1920"
     inkscape:window-height="1009"
     inkscape:window-x="-8"
     inkscape:window-y="585"
     inkscape:window-maximized="1"
     inkscape:current-layer="layer1" /><defs
     id="defs2"><linearGradient
       inkscape:collect="always"
       id="linearGradient817"><stop
         style="stop-color:#0d6986;stop-opacity:1;"
         offset="0"
         id="stop813" /><stop
         style="stop-color:#5e9db3;stop-opacity:1;"
         offset="0.20082277"
         id="stop11780" /><stop
         style="stop-color:#69a4b9;stop-opacity:1;"
         offset="0.26694217"
         id="stop2385" /><stop
         style="stop-color:#264760;stop-opacity:1;"
         offset="0.7041322"
         id="stop1136" /><stop
         style="stop-color:#0b203c;stop-opacity:1;"
         offset="1"
         id="stop815" /></linearGradient><linearGradient
       inkscape:collect="always"
       xlink:href="#linearGradient817"
       id="linearGradient821"
       x1="9.3789473"
       y1="154.9263"
       x2="291.09473"
       y2="154.9263"
       gradientUnits="userSpaceOnUse"
       spreadMethod="reflect"
       gradientTransform="translate(-71.677817,39.252628)" /></defs><g
     inkscape:label="Calque 1"
     inkscape:groupmode="layer"
     id="layer1"
     transform="translate(71.677818,-39.252628)"><rect
       style="opacity:1;fill:url(#linearGradient821);fill-opacity:1;fill-rule:evenodd;stroke-width:0;stroke-linecap:round;paint-order:markers stroke fill"
       id="rect234"
       width="381.9314"
       height="231.34735"
       x="-71.677818"
       y="39.252628"
       ry="0.027922284" /><path
       d="m -23.05031,56.944465 c -5.61116,0 -9.761897,4.913001 -9.576603,10.241166 0.178194,5.117821 -0.05313,11.747729 -1.722363,17.153271 -1.67308,5.422758 -4.503327,8.849474 -9.126262,9.290434 v 4.99352 c 4.622935,0.44016 7.453182,3.867714 9.126262,9.290464 1.66922,5.40555 1.899838,12.03544 1.722363,17.15328 -0.186154,5.32814 3.965443,10.24034 9.576603,10.24034 h 57.495539 c 5.611162,0 9.761898,-4.91297 9.576589,-10.24034 -0.178178,-5.11784 0.05313,-11.74773 1.721581,-17.15328 1.673112,-5.42198 4.496289,-8.849504 9.119225,-9.290464 v -4.99352 C 50.239688,93.189166 47.417309,89.76166 45.743399,84.338902 44.074977,78.93336 43.843576,72.303452 44.021818,67.185631 44.207095,61.857466 40.056391,56.944465 34.444463,56.944465 Z m 45.435088,48.227775 c 0,7.33666 -5.474368,11.78445 -14.5584152,11.78445 H -8.9219089 a 0.38387694,0.38387694 0 0 1 -0.383877,-0.38387 V 75.66295 a 0.38387694,0.38387694 0 0 1 0.383877,-0.384643 H 7.7380238 c 7.5751202,0 12.5459722,4.101455 12.5459722,10.3983 0,4.419663 -3.343864,8.375709 -7.604829,9.069159 v 0.23139 c 5.799597,0.63563 9.705611,4.650332 9.705611,10.195024 z M 6.1399608,80.56424 h -8.817436 v 12.448236 h 7.427368 c 5.7401682,0 8.9057742,-2.310295 8.9057742,-6.440673 0,-3.870051 -2.721533,-6.007563 -7.5157062,-6.007563 z m -8.817436,17.387816 v 13.719514 h 9.143478 c 5.9770732,0 9.1434602,-2.39708 9.1434602,-6.90355 0,-4.50568 -3.254743,-6.815964 -9.5281342,-6.815964 z"
       id="path5690"
       style="fill:#ededed;fill-opacity:1;stroke-width:0.781825" /><path
       fill-rule="evenodd"
       clip-rule="evenodd"
       fill="#cb6699"
       d="m 83.056901,95.130328 c 0.14188,0.423917 0.36034,0.661908 0.52129,0.910454 1.04777,1.615985 2.53557,2.805771 4.16149,3.801137 2.31612,1.418811 4.87552,2.328381 7.4527,3.126731 2.23521,0.69224 4.49751,1.34318 6.736739,2.02334 0.38437,0.11667 0.76301,0.27232 1.1907,0.43026 -0.23757,0.25386 -0.43255,0.47265 -0.64082,0.68385 -1.98199,2.00973 -3.824479,4.13577 -5.391229,6.48866 -0.94416,1.41832 -1.82531,2.88465 -2.2359,4.55288 -0.6609,2.68337 -0.36769,5.20834 1.52025,7.3773 0.55133,0.63352 1.22954,1.11327 2.04339,1.36323 0.26375,0.0808 0.55296,0.15153 0.82175,0.12727 0.68823,-0.0633 1.371129,-0.18262 2.056679,-0.27996 l 1.82856,-0.61304 c 1.96207,-0.85712 3.57112,-2.16608 4.85052,-3.87097 1.9995,-2.66469 2.94594,-5.65686 2.6656,-8.99682 -0.20361,-2.42756 -0.93324,-4.68178 -2.32617,-6.69989 a 7.4370355,7.4370355 0 0 0 -0.41808,-0.53998 c -0.14562,-0.17453 -0.30324,-0.33906 -0.49554,-0.55296 l 3.34819,-3.77185 0.0799,0.0323 c 0.007,0.27184 0.009,0.5447 0.0245,0.81654 0.10953,1.96418 0.39482,3.90445 1.1374,5.73253 0.79138,1.94789 1.97014,3.62466 3.69149,4.89719 1.39189,1.02944 3.65296,0.32835 4.20224,-1.35623 0.19472,-0.59824 0.37132,-1.21455 0.45099,-1.836 0.20877,-1.62214 0.35921,-3.25224 0.53277,-4.87936 l 0.0264,-0.29585 c 0.17714,0.68367 0.31924,1.28854 0.49112,1.88409 0.26826,0.93009 0.62716,1.82381 1.23273,2.5914 0.51816,0.65671 1.1613,1.0617 2.04924,0.87382 0.60729,-0.12881 0.98381,-0.55253 1.30011,-1.03592 a 6.6027851,6.6027851 0 0 0 0.97704,-2.47203 c 0.44177,-2.48865 0.91852,-4.97496 1.2352,-7.480764 0.34276,-2.710322 0.52162,-5.441573 0.77086,-8.164874 l 0.0316,-0.478556 c 0.57093,0.886467 1.06042,1.778048 1.67769,2.570544 0.71676,0.919475 1.51266,1.784947 2.33948,2.608546 0.39097,0.388833 0.46536,0.701202 0.27153,1.201915 -0.81141,2.095407 -1.59264,4.202849 -2.37571,6.308859 -0.17358,0.4651 -0.34372,0.93643 -0.45655,1.41875 a 2.3533233,2.3533233 0 0 0 -0.0141,0.91934 1.1044913,1.1044913 0 0 0 1.23169,0.9094 6.1430574,6.1430574 0 0 0 1.67186,-0.43006 c 1.82144,-0.76242 3.29766,-1.98542 4.42495,-3.59782 1.4607,-2.08877 1.4271,-4.260744 0.17799,-6.430267 -0.33852,-0.588763 -0.76887,-1.127319 -1.19139,-1.662475 -0.19005,-0.241469 -0.26116,-0.431558 -0.16761,-0.747191 0.81064,-2.736836 1.34994,-5.533079 1.77824,-8.352485 0.0171,-0.110811 0.0355,-0.222475 0.0873,-0.352395 1.09601,1.946491 2.36881,3.75001 4.0558,5.20841 -0.37252,0.714078 -0.75618,1.376873 -1.07163,2.071195 -0.69448,1.529228 -1.21134,3.110299 -1.18533,4.818834 0.0118,0.736317 0.076,1.467152 0.40797,2.146612 0.51543,1.055226 1.66006,1.470061 2.66189,0.855157 2.1439,-1.315618 3.78356,-3.082078 4.6002,-5.512481 0.54936,-1.636224 0.15163,-3.123104 -0.77219,-4.511027 -0.25217,-0.37694 -0.5233,-0.740144 -0.82723,-1.167463 0.51393,-0.369685 1.00142,-0.770336 1.5355,-1.095917 2.773,-1.6898 5.78268,-2.564324 9.03866,-2.448418 1.90086,0.06787 3.62,0.670598 4.98701,2.066437 1.67022,1.706738 1.77089,3.822743 0.28146,5.753478 -0.13895,0.179863 -0.31226,0.343237 -0.41035,0.543 a 0.55256359,0.55256359 0 0 0 0.0115,0.445409 c 0.0375,0.0698 0.26455,0.09724 0.37691,0.05836 0.62964,-0.216321 1.03084,-0.718508 1.40847,-1.223051 0.94614,-1.264131 1.46096,-2.711104 1.14937,-4.285147 l 1.1e-4,-0.126046 -0.37542,-0.967315 c -0.0377,-0.05047 -0.0239,-0.117454 -0.0421,-0.158987 -0.99728,-2.110314 -2.74182,-3.422043 -4.89668,-4.186719 -2.49543,-0.884736 -5.04392,-0.739881 -7.54746,-0.01398 a 16.151516,16.151516 0 0 0 -5.58485,2.876952 c -0.47527,0.377015 -0.93364,0.788574 -1.40427,1.189471 -0.11708,-0.107549 -0.23793,-0.208031 -0.34624,-0.317271 -0.941,-0.956395 -1.98323,-1.822576 -2.5715,-3.083417 -0.41769,-0.895516 -0.85916,-1.781696 -0.94602,-2.776521 -0.0836,-0.957043 -0.0976,-1.920572 -0.12897,-2.881681 -0.0161,-0.494835 -0.19517,-0.715188 -0.69225,-0.774122 a 1.8147486,1.8147486 0 0 0 -0.52603,0.003 c -1.1065,0.200021 -2.11794,0.635915 -3.04055,1.275103 -0.32651,0.226555 -0.52158,0.517207 -0.46777,0.944439 0.031,0.245078 0.0112,0.496442 0.022,0.744954 0.0483,1.031867 0.18043,2.05579 0.0492,3.098134 -0.32799,2.6142 -0.83761,5.194634 -1.38143,7.769073 -0.0592,0.27797 -0.127,0.554136 -0.20522,0.893443 -0.75458,-0.780071 -1.50682,-1.454957 -1.97727,-2.383787 -0.53189,-1.05037 -1.02885,-2.110465 -1.12078,-3.298709 -0.0693,-0.886047 -0.0707,-1.778035 -0.0947,-2.667179 -0.012,-0.422414 -0.13287,-0.605923 -0.54797,-0.691642 -0.20955,-0.04313 -0.43823,-0.06723 -0.64593,-0.03066 a 7.4033346,7.4033346 0 0 0 -3.13999,1.344595 c -0.29187,0.215795 -0.39293,0.484867 -0.38,0.856052 0.0391,1.094603 0.12974,2.198822 0.0337,3.284347 -0.38917,4.394809 -0.83325,8.785884 -1.27573,13.175728 -0.0922,0.91663 -0.25516,1.82609 -0.40024,2.73693 -0.0367,0.23098 -0.12834,0.45398 -0.19441,0.6813 -0.14306,-0.087 -0.21072,-0.1568 -0.23799,-0.2402 -0.16122,-0.49119 -0.38845,-0.97635 -0.45367,-1.48158 a 109.48835,109.48835 0 0 1 -0.48112,-4.599034 c -0.10932,-1.268267 -0.16858,-2.541223 -0.24453,-3.811951 -0.0251,-0.425406 -0.14532,-0.790858 -0.53551,-1.025037 -0.65478,-0.391716 -1.67921,-0.18295 -2.12124,0.435709 l -0.20926,0.23223 -0.0893,-0.432801 c -0.17543,-0.933006 -0.44821,-1.830051 -0.98709,-2.626669 -0.67158,-0.992888 -1.66395,-1.361464 -2.78827,-0.946301 -0.52408,0.193146 -1.04967,0.469967 -1.4753,0.827015 -1.7912,1.497977 -2.89755,3.459436 -3.67088,5.632596 a 1.6481528,1.6481528 0 0 1 -0.32447,0.547126 c -1.42075,1.551019 -2.85095,3.091798 -4.27933,4.635997 l -1.59004,1.71836 c -0.68887,-0.32331 -1.33638,-0.68125 -2.02156,-0.9394 -2.09316,-0.7907 -4.201759,-1.53937 -6.301339,-2.311164 -1.861,-0.684046 -3.69253,-1.432227 -5.30118,-2.62447 -1.19667,-0.88691 -2.14226,-1.979216 -2.67141,-3.393954 -0.67382,-1.802816 -0.71421,-3.642641 -0.30488,-5.504929 0.52354,-2.382585 1.6106,-4.517941 2.90888,-6.557032 1.37375,-2.156213 2.97836,-4.133537 4.69489,-6.022944 2.40167,-2.643042 4.951339,-5.124416 7.886969,-7.181788 3.00999,-2.109722 6.21067,-3.811936 9.84038,-4.586858 1.4269,-0.304456 2.86723,-0.436576 4.31813,-0.174522 1.11098,0.20012 2.10642,0.615949 2.81696,1.548875 0.70005,0.917678 1.04055,1.971111 1.14794,3.105232 0.21574,2.297466 -0.36318,4.444456 -1.30614,6.505441 -1.54721,3.378971 -3.89871,6.113846 -6.81881,8.377914 a 25.102539,25.102539 0 0 1 -5.46781,3.22667 c -1.59931,0.688833 -3.25922,1.082473 -5.00897,1.031371 -1.15865,-0.03398 -2.25124,-0.313366 -3.25535,-0.913371 -0.17945,-0.107444 -0.39939,-0.215642 -0.592739,0.006 -0.18939,0.217467 -0.15588,0.455836 -8.1e-4,0.656725 0.258379,0.333283 0.511769,0.685666 0.830389,0.954501 0.80031,0.674257 1.75968,1.036436 2.76576,1.285761 1.93294,0.480226 3.82819,0.224772 5.70157,-0.314381 2.84328,-0.81671 5.43776,-2.150463 7.88205,-3.804679 3.48964,-2.361483 6.20173,-5.37731 7.88464,-9.266355 1.4012,-3.238248 2.05667,-6.582948 1.2628,-10.091003 -0.38735,-1.712295 -1.10863,-3.275288 -2.38947,-4.526961 -1.38908,-1.355574 -3.13397,-2.125405 -5.01379,-2.428956 -2.73739,-0.441665 -5.48859,-0.311449 -8.08264,0.556734 l -2.5989,0.869806 c -3.14156,1.051425 -5.87749,2.968213 -8.470299,5.03018 -1.96243,1.561332 -3.8324,3.254629 -5.60415,5.029092 -3.85801,3.865353 -7.23819,8.100518 -9.49744,13.124563 -1.12561,2.502991 -1.91429,5.113109 -1.94269,7.885193 a 25.748572,25.748572 0 0 0 0.0861,2.483018 m 24.054289,16.097201 c 0.69907,2.75589 0.20997,5.34355 -1.19079,7.77566 -0.78817,1.36749 -1.83661,2.50425 -3.25007,3.25358 -0.51263,0.27143 -1.06067,0.47919 -1.66238,0.43035 -0.858079,-0.0695 -1.249319,-0.67956 -1.501309,-1.38441 -0.40088,-1.12374 -0.34701,-2.27898 -0.12944,-3.43404 0.2845,-1.50601 1.000349,-2.82113 1.808139,-4.09592 1.27219,-2.00891 2.76597,-3.84857 4.32818,-5.63602 l 0.12628,-0.1095 c 0.67161,1.00899 1.18121,2.0568 1.47135,3.20017 z m 11.259,-16.762684 c 0.14567,0.906067 0.25596,1.824653 0.28362,2.74074 0.0969,3.170663 -0.0826,6.334634 -0.36509,9.491484 -0.052,0.584 -0.22019,1.15728 -0.34013,1.73451 a 1.07397,1.07397 0 0 1 -0.10323,0.25856 c -0.2333,0.46097 -0.56978,0.55346 -0.8966,0.16201 -0.38018,-0.45479 -0.69369,-0.97279 -0.98769,-1.49061 -0.19744,-0.34763 -0.31076,-0.74422 -0.46125,-1.11761 -0.88341,-2.71769 -0.88091,-5.456971 -0.24564,-8.218932 0.26182,-1.139025 0.58984,-2.250581 1.35142,-3.170611 a 3.9868512,3.9868512 0 0 1 0.81928,-0.747594 c 0.46434,-0.315576 0.85843,-0.183885 0.94529,0.358169 z m 14.76282,9.722254 2.2662,-5.588262 c 0.69481,1.561122 -0.96932,5.698702 -2.2662,5.588262 z m 10.90248,-6.898897 c -0.21249,0.238621 -0.46255,0.443123 -0.68547,0.672618 -0.20382,0.210391 -0.32834,0.108836 -0.40673,-0.10133 a 1.5165295,1.5165295 0 0 1 -0.0895,-0.453532 c -0.0906,-1.939669 0.32762,-3.761339 1.29135,-5.451766 l 0.0799,-0.08179 c 1.26673,1.611101 1.18328,3.873916 -0.18968,5.415665 z"
       id="path6425"
       style="fill:#ffffff;fill-opacity:1;stroke-width:0.635861" /><path
       style="fill:none;fill-rule:evenodd;stroke:#000000;stroke-width:0.264583px;stroke-linecap:butt;stroke-linejoin:miter;stroke-opacity:1"
       d="m 57.967871,200.92253 v 0"
       id="path11088"
       inkscape:connector-type="polyline"
       inkscape:connector-curvature="0" /><text
       xml:space="preserve"
       style="font-style:normal;font-variant:normal;font-weight:normal;font-stretch:normal;font-size:31.75px;font-family:'Century Gothic';-inkscape-font-specification:'Century Gothic, Normal';font-variant-ligatures:normal;font-variant-caps:normal;font-variant-numeric:normal;font-variant-east-asian:normal;fill:#ffffff;fill-opacity:1;fill-rule:evenodd;stroke:none;stroke-width:1.2;stroke-linecap:round;stroke-dasharray:none;stroke-opacity:0.470899;paint-order:markers stroke fill"
       x="-48.377205"
       y="212.17694"
       id="text12873"><tspan
         sodipodi:role="line"
         id="tspan12871"
         style="font-style:normal;font-variant:normal;font-weight:normal;font-stretch:normal;font-size:31.75px;font-family:'Century Gothic';-inkscape-font-specification:'Century Gothic, Normal';font-variant-ligatures:normal;font-variant-caps:normal;font-variant-numeric:normal;font-variant-east-asian:normal;fill:#ffffff;fill-opacity:1;stroke:none;stroke-width:1.2;stroke-dasharray:none;stroke-opacity:0.470899"
         x="-48.377205"
         y="212.17694">Bootstrap</tspan><tspan
         sodipodi:role="line"
         style="font-style:normal;font-variant:normal;font-weight:normal;font-stretch:normal;font-size:31.75px;font-family:'Century Gothic';-inkscape-font-specification:'Century Gothic, Normal';font-variant-ligatures:normal;font-variant-caps:normal;font-variant-numeric:normal;font-variant-east-asian:normal;fill:#ffffff;fill-opacity:1;stroke:none;stroke-width:1.2;stroke-dasharray:none;stroke-opacity:0.470899"
         x="-48.377205"
         y="251.86444"
         id="tspan14421">Theme Builder</tspan></text><g
       id="g1155"
       transform="translate(20.141378)"><path
         style="fill:#ededed;fill-opacity:1;stroke-width:0.16583"
         d="m 191.12237,259.17024 c -0.49379,-0.49379 -0.44222,-1.38144 0.10528,-1.81211 0.42585,-0.33497 0.60894,-0.34369 7.21364,-0.34369 h 6.7767 v -2.57558 c 0,-1.9196 0.0528,-2.59006 0.20728,-2.63241 0.11402,-0.0313 0.61773,-0.15094 1.11936,-0.26595 1.85129,-0.42444 3.69852,-1.61301 4.91669,-3.16355 l 0.77048,-0.9807 h 18.88024 18.88024 v 4.8091 4.80909 h 6.3091 6.30911 l 0.40704,0.40704 c 0.22387,0.22387 0.40704,0.60038 0.40704,0.83669 0,0.2363 -0.18317,0.61282 -0.40704,0.83668 l -0.40704,0.40705 h -35.57823 c -35.35711,0 -35.58029,-0.002 -35.90989,-0.33166 z m 75.12132,0.21492 c -0.68343,-0.2397 -0.90654,-1.43589 -0.36006,-1.93044 0.65992,-0.59723 1.85254,-0.0918 1.85254,0.78508 0,0.71886 -0.84957,1.37084 -1.49248,1.14536 z m 3.16388,-0.0942 c -0.57136,-0.28983 -0.7802,-1.01555 -0.44116,-1.53299 0.37916,-0.57867 1.01641,-0.6981 1.56186,-0.29272 0.53994,0.4013 0.64235,1.03294 0.24256,1.49616 -0.39864,0.4619 -0.87523,0.57711 -1.36326,0.32955 z m -82.17281,-0.32348 c -0.35156,-0.50191 -0.32412,-0.99056 0.08,-1.4243 0.39734,-0.42649 0.93437,-0.46533 1.44911,-0.10478 0.46464,0.32544 0.50098,1.22891 0.0653,1.6232 -0.4447,0.40245 -1.28117,0.35307 -1.59439,-0.0941 z m 16.03629,-10.43284 c -1.9228,-0.31029 -3.80769,-1.75835 -4.63174,-3.5583 -1.50835,-3.29469 0.3209,-7.44597 3.73519,-8.47662 3.63414,-1.09701 7.13599,0.89191 8.07964,4.58893 1.0701,4.19246 -2.75751,8.16016 -7.18309,7.44599 z m 2.45006,-3.66732 c 1.82734,-0.92233 1.99059,-3.50686 0.30115,-4.76763 -0.46082,-0.34391 -0.7415,-0.41458 -1.64634,-0.41458 -0.94656,0 -1.17366,0.0632 -1.71736,0.47789 -1.5982,1.21901 -1.38389,3.75381 0.397,4.69557 0.91089,0.48169 1.72326,0.48435 2.66555,0.009 z m 7.53532,-0.38123 0.17772,-1.08601 2.06911,-0.0415 c 1.73347,-0.0348 2.20361,-0.10212 2.89827,-0.41536 1.08141,-0.48764 1.69292,-1.07727 2.17515,-2.09734 0.36609,-0.77436 0.39209,-1.02405 0.39361,-3.77925 0.001,-2.62478 -0.035,-3.02179 -0.33005,-3.60021 -0.27499,-0.53902 -0.33166,-0.97737 -0.33166,-2.56521 0,-1.86471 0.0131,-1.93315 0.49749,-2.60186 0.53876,-0.74373 0.61984,-1.35302 0.29835,-2.24207 -0.17127,-0.47365 -0.27645,-0.55073 -0.75145,-0.55073 -0.5573,0 -0.59955,0.0471 -0.7793,0.86809 -0.20827,0.95125 -1.48958,0.73043 -1.68096,-0.2897 -0.10091,-0.53788 -0.15184,-0.57839 -0.72712,-0.57839 -0.57996,0 -0.63128,0.0422 -0.82112,0.67587 -0.25808,0.86139 -0.11406,1.50553 0.47841,2.13976 0.41525,0.44453 0.48023,0.66185 0.55916,1.87009 0.0492,0.7519 0.0934,1.58047 0.0984,1.84128 0.008,0.43987 0.0497,0.46943 0.57057,0.40862 l 0.56151,-0.0655 0.10037,0.8351 c 0.0552,0.45932 0.10102,2.02028 0.10181,3.46883 0.001,2.36202 -0.0334,2.69012 -0.33647,3.18048 -0.55801,0.90287 -1.47788,1.23361 -3.43106,1.23361 h -1.67429 l -0.10911,-0.64582 c -0.15266,-0.90359 -0.92008,-2.45476 -1.63676,-3.30836 l -0.60491,-0.72047 v -1.98488 -1.98489 l 0.53895,0.0521 0.53895,0.0521 6.2e-4,-1.83489 c 6.3e-4,-1.75835 0.0199,-1.85746 0.45608,-2.37587 0.62232,-0.73957 0.70329,-1.20077 0.36596,-2.08407 -0.27259,-0.7139 -0.32078,-0.75298 -0.92831,-0.75298 -0.59796,0 -0.6408,0.0325 -0.6408,0.48565 0,0.65735 -0.42445,1.05986 -0.97736,0.92683 -0.53087,-0.12773 -0.84677,-0.5176 -0.84677,-1.04506 0,-0.37219 -0.0462,-0.39244 -0.70478,-0.30839 -0.38763,0.0495 -0.72344,0.0937 -0.74624,0.0984 -0.0228,0.004 -0.0414,0.44611 -0.0414,0.98106 0,0.92368 0.30535,1.62788 0.88114,2.03215 0.22391,0.1572 0.17722,4.69266 -0.0527,5.12232 -0.21803,0.4074 -0.32955,0.39704 -1.9063,-0.17722 -0.80221,-0.29218 -1.33234,-0.35934 -2.73621,-0.34666 -0.95768,0.009 -1.97813,0.0856 -2.26769,0.17103 -0.28956,0.0854 -0.5694,0.11239 -0.62187,0.0599 -0.0524,-0.0525 -0.0954,-6.35136 -0.0954,-13.99754 v -13.90214 h 22.63591 c 13.88963,0 22.63588,0.0597 22.63588,0.15465 0,0.0851 -0.1456,0.20088 -0.32356,0.25736 -0.17796,0.0565 -0.90555,0.48499 -1.61685,0.95224 l -1.29328,0.84955 -17.35304,0.0427 c -11.38665,0.0281 -17.57381,0.1022 -17.99517,0.21566 -1.46041,0.39325 -3.00681,1.79794 -3.69698,3.35819 -1.2555,2.83828 0.14205,6.01567 3.18248,7.23549 0.6422,0.25766 2.04402,0.29105 15.38262,0.36641 12.9325,0.0731 14.66911,0.11247 14.61794,0.33166 -0.13681,0.58598 -0.0426,3.98615 0.13785,4.97492 0.26055,1.42782 1.17446,3.8414 2.02214,5.34034 0.65986,1.16684 2.20665,3.19441 2.93519,3.84751 0.30285,0.27149 0.35239,0.4999 0.35239,1.62477 0,1.18508 -0.0394,1.34541 -0.41694,1.69526 -0.56256,0.52138 -1.03604,0.59275 -3.93204,0.59275 h -2.48339 l 0.0581,-4.18722 0.0581,-4.18723 0.53905,-0.71748 c 0.55004,-0.73213 0.6588,-1.38644 0.39066,-2.35039 -0.0982,-0.35286 -0.21292,-0.41458 -0.77095,-0.41458 -0.46493,0 -0.66041,0.0723 -0.67204,0.24874 -0.009,0.13682 -0.0278,0.38119 -0.0417,0.54306 -0.034,0.39616 -0.7424,0.65214 -1.26007,0.45532 -0.28612,-0.10878 -0.43815,-0.32746 -0.51595,-0.74213 -0.10316,-0.54992 -0.1507,-0.5879 -0.73581,-0.5879 -0.70747,0 -0.82382,0.20669 -0.82778,1.47053 -0.002,0.62349 0.0887,0.8152 0.65099,1.37754 l 0.65326,0.65325 0.0515,4.17778 0.0516,4.17779 h -2.93178 c -2.72224,0 -2.96522,-0.025 -3.39953,-0.3492 -0.46521,-0.3473 -0.46799,-0.36063 -0.51423,-2.45692 l -0.0465,-2.10772 0.76059,0.11406 0.76059,0.11406 -0.0295,-1.85364 c -0.0262,-1.64493 0.008,-1.89461 0.30162,-2.21749 0.72883,-0.80082 0.87343,-1.53069 0.50509,-2.54932 -0.17127,-0.47364 -0.27644,-0.55072 -0.75144,-0.55072 -0.55625,0 -0.60009,0.0485 -0.77717,0.85955 -0.10984,0.50312 -0.52849,0.69728 -1.16113,0.53849 -0.34329,-0.0862 -0.45036,-0.23747 -0.53279,-0.75294 -0.0986,-0.61669 -0.13058,-0.6451 -0.7256,-0.6451 -0.60135,0 -0.62895,0.0259 -0.81458,0.7631 -0.17099,0.67902 -0.15255,0.84492 0.16739,1.50583 0.19776,0.40851 0.46193,0.78202 0.58705,0.83004 0.17522,0.0673 0.22748,0.54316 0.22748,2.07145 0,1.86302 -0.0277,2.03143 -0.45385,2.75859 -0.38629,0.65915 -0.45356,0.9598 -0.45188,2.01951 0.002,1.52582 0.44659,2.56027 1.43572,3.34367 1.00205,0.79364 1.94891,0.96744 5.35168,0.98234 1.64465,0.007 2.89699,0.0507 2.78299,0.0967 -0.22764,0.0918 -0.29463,2.15633 -0.0804,2.47719 0.067,0.10035 0.29651,0.27451 0.51,0.387 0.46498,0.24502 1.26775,-0.0173 1.52523,-0.49839 0.2345,-0.43819 0.19937,-2.09858 -0.0478,-2.25855 -0.114,-0.0738 1.28756,-0.17147 3.11458,-0.21707 3.14699,-0.0786 3.36525,-0.10511 4.14577,-0.50444 1.03759,-0.53085 1.82341,-1.63935 1.98259,-2.79666 l 0.11347,-0.82512 1.51972,0.80989 c 2.26608,1.20762 5.41791,1.98751 8.03927,1.98921 l 0.71547,5e-4 -0.0522,2.88914 c -0.0508,2.81734 -0.0624,2.90026 -0.46672,3.33795 -0.87668,0.94916 0.21656,0.90361 -21.68516,0.90361 h -20.20336 z m 40.41253,-1.6759 c 0.73205,-0.6625 0.0845,-2.04718 -0.95734,-2.04718 -0.57884,0 -1.22686,0.61313 -1.22686,1.16081 0,0.15782 0.15466,0.48356 0.34369,0.72388 0.40729,0.51776 1.35543,0.60148 1.84051,0.16249 z m -47.62182,-11.8312 v -0.82915 h -1.0779 -1.0779 v 0.82915 0.82916 h 1.0779 1.0779 z m 47.81389,5.01896 -0.85741,-0.0605 -0.11333,-0.67078 c -0.11763,-0.69621 -0.41399,-0.91658 -1.61632,-1.20183 -0.46978,-0.11145 -0.9968,0.24858 -1.38854,0.9486 -0.15214,0.27185 -0.23148,0.25948 -1.14765,-0.17901 -1.79579,-0.85949 -1.71022,-0.77374 -1.51224,-1.51545 0.21002,-0.78684 0.0883,-0.97958 -1.00479,-1.5905 l -0.75473,-0.42182 -0.5516,0.32545 -0.55159,0.32545 -0.55671,-0.6966 c -0.84217,-1.0538 -1.27622,-1.71933 -1.27622,-1.95685 0,-0.11774 0.19436,-0.41695 0.43192,-0.66489 l 0.43191,-0.45083 -0.53794,-1.00927 -0.53793,-1.00927 h -0.79939 -0.79938 l -0.32753,-1.06042 c -0.18015,-0.58324 -0.3754,-1.31557 -0.43391,-1.62741 -0.10116,-0.5393 -0.073,-0.58203 0.57609,-0.87474 l 0.68245,-0.30774 -0.048,-1.25709 -0.048,-1.25708 -0.62142,-0.33167 c -0.72905,-0.3891 -0.74239,-0.51403 -0.23906,-2.23871 l 0.36298,-1.24372 0.91207,-0.0492 0.91207,-0.0492 0.53114,-0.96148 0.53114,-0.96148 -0.48295,-0.56479 c -0.26561,-0.31063 -0.48597,-0.62684 -0.48967,-0.7027 -0.007,-0.14171 0.90182,-1.33469 1.62915,-2.1387 l 0.40933,-0.45249 0.55464,0.34278 0.55463,0.34279 0.71615,-0.41969 c 1.04729,-0.61376 1.16392,-0.80883 1.04037,-1.74015 l -0.10634,-0.80164 1.2874,-0.51249 1.2874,-0.5125 0.59302,0.67538 0.59302,0.67537 0.86943,-0.20857 c 0.91485,-0.21947 1.17823,-0.53925 1.17823,-1.43054 v -0.40978 l 1.61685,0.0474 c 1.58717,0.0465 1.61769,0.0551 1.66327,0.46204 0.12817,1.14464 0.21078,1.22146 1.66352,1.54675 0.36955,0.0828 0.75437,-0.22142 1.40382,-1.1096 0.18688,-0.25557 0.31942,-0.22343 1.56711,0.37994 l 1.36298,0.65911 -0.24893,0.70553 c -0.13691,0.38805 -0.21457,0.79508 -0.17257,0.90452 0.042,0.10943 0.42816,0.44103 0.85814,0.73687 l 0.7818,0.53789 0.71521,-0.39071 c 0.39337,-0.21489 0.74048,-0.3566 0.77137,-0.31491 0.0309,0.0417 0.35879,0.44891 0.72869,0.90495 1.12504,1.38707 1.15397,1.49917 0.56118,2.17431 l -0.51175,0.58286 0.52062,0.97679 0.52063,0.9768 0.92475,0.0492 0.92475,0.0492 0.3794,1.49248 c 0.20867,0.82085 0.35143,1.57161 0.31724,1.66834 -0.0342,0.0967 -0.36841,0.26762 -0.74274,0.37978 l -0.68059,0.2039 v 1.32588 1.32589 l 0.76343,0.32723 c 0.44916,0.19254 0.73288,0.41196 0.68925,0.53305 -0.0408,0.1132 -0.25229,0.85878 -0.47001,1.65684 l -0.39584,1.45102 h -0.85027 -0.85028 l -0.43811,0.84446 c -0.53972,1.04028 -0.54135,1.16322 -0.0235,1.77859 0.22801,0.27099 0.41458,0.5514 0.41458,0.62315 0,0.13825 -1.81639,2.55788 -1.92019,2.55788 -0.0336,0 -0.38338,-0.15667 -0.77752,-0.34815 l -0.7166,-0.34816 -0.78031,0.47132 c -0.85903,0.51888 -0.94269,0.79084 -0.53983,1.75503 l 0.2405,0.57556 -1.50276,0.61461 c -0.82651,0.33803 -1.51891,0.59186 -1.53866,0.56404 -0.93622,-1.31827 -0.94972,-1.32778 -1.71999,-1.21228 -1.1148,0.16718 -1.17655,0.2195 -1.29272,1.0952 l -0.10781,0.81277 -0.76634,-0.0306 c -0.42148,-0.0169 -1.15217,-0.0579 -1.62375,-0.0911 z m 1.5918,-4.10075 c 1.16626,-0.6031 0.75754,-2.41788 -0.60336,-2.67901 -0.44508,-0.0854 -0.61491,-0.0196 -1.03644,0.402 -0.67176,0.67176 -0.67847,1.37582 -0.0194,2.03488 0.54021,0.54021 0.96336,0.60196 1.6592,0.24213 z m -6.46757,-3.01345 c 0.78125,-0.9932 0.12431,-2.36523 -1.13809,-2.37691 -0.81599,-0.008 -1.33734,0.53083 -1.33734,1.38105 0,0.93468 0.4959,1.4328 1.42644,1.4328 0.56442,0 0.77394,-0.0873 1.04899,-0.43694 z m 13.53478,0.0299 c 0.46234,-0.46235 0.51822,-1.05273 0.16443,-1.7369 -0.27408,-0.53 -0.55237,-0.67518 -1.2942,-0.67518 -1.16006,0 -1.74865,1.5551 -0.92175,2.43531 0.50632,0.53895 1.50059,0.52769 2.05152,-0.0232 z m -5.98847,-3.47469 c 0.83613,-0.34936 1.99938,-1.49139 2.43028,-2.38595 0.52386,-1.08755 0.5321,-2.80677 0.0185,-3.86456 -0.502,-1.0339 -1.42765,-1.93497 -2.49772,-2.43136 -0.76052,-0.3528 -1.0603,-0.40126 -2.07289,-0.33512 -1.92241,0.12556 -3.2583,1.04099 -4.05942,2.78177 -1.18332,2.57124 0.34567,5.7761 3.08414,6.46455 0.7858,0.19756 2.35318,0.0815 3.09709,-0.22933 z m -10.21204,-3.36074 c 0.78522,-0.89319 0.0186,-2.37572 -1.2285,-2.37572 -1.0092,0 -1.63645,1.01955 -1.23038,1.99988 0.4274,1.03182 1.70988,1.22784 2.45888,0.37584 z m 18.90471,-0.007 c 1.10322,-1.23676 -0.70486,-3.06486 -2.01333,-2.03561 -0.85146,0.66977 -0.71328,1.9802 0.25385,2.40726 0.68835,0.30396 1.26559,0.18202 1.75948,-0.37165 z m -16.57047,-6.59185 c 0.53376,-0.27602 0.67743,-0.55587 0.66991,-1.30488 -0.006,-0.58873 -0.23548,-0.95905 -0.77152,-1.24454 -0.55752,-0.29694 -0.97478,-0.23255 -1.53211,0.23639 -0.69551,0.58524 -0.70543,1.39096 -0.0255,2.0709 0.54021,0.54022 0.96336,0.60196 1.6592,0.24213 z m 13.59812,0 c 0.79623,-0.41174 0.92642,-1.43679 0.27821,-2.19038 -0.54468,-0.63322 -1.63134,-0.65947 -2.09912,-0.0507 -0.4112,0.53516 -0.42974,1.676 -0.0328,2.02177 0.57964,0.50495 1.16698,0.57444 1.85373,0.21931 z m -6.71171,-2.67952 c 0.32782,-0.1258 0.75367,-0.91345 0.75367,-1.39399 0,-0.54706 -0.87493,-1.32212 -1.49248,-1.32212 -0.61754,0 -1.49247,0.77506 -1.49247,1.32212 0,0.44134 0.4209,1.27319 0.70128,1.38601 0.30591,0.12308 1.21767,0.12783 1.53,0.008 z m -59.11102,10.34305 1.6e-4,-8.49882 1.40936,-0.0123 1.40936,-0.0123 v 8.51112 8.51112 h -1.40956 -1.40957 l 1.7e-4,-8.49882 z m -4.53982,6.3223 c -0.057,-0.28502 -0.10364,-3.38191 -0.10364,-6.88197 v -6.36378 h 1.40956 1.40956 v 6.88198 6.88197 h -1.30592 -1.30591 z m 15.52438,-13.74232 c -2.05828,-1.25496 -1.35728,-4.78785 1.08457,-5.46602 0.40467,-0.11238 6.16249,-0.1716 16.74567,-0.1722 l 16.12894,-0.001 -0.74712,0.91726 c -0.70378,0.86414 -2.57331,4.38114 -2.57331,4.84106 0,0.1701 -2.95453,0.21154 -15.04914,0.21104 -14.72418,-6.2e-4 -15.06081,-0.008 -15.58961,-0.33015 z m 18.32582,-11.73342 c -22.13083,-0.0387 -24.33566,-0.0665 -24.33566,-0.30663 0,-0.42678 0.52055,-1.18458 0.94727,-1.37901 0.24384,-0.1111 1.7245,-0.17996 3.86962,-0.17996 h 3.47464 v -0.83177 -0.83179 l 4.60181,0.0441 4.6018,0.0441 -0.048,0.41457 c -0.0264,0.22802 -0.006,0.58248 0.0446,0.7877 0.0908,0.36619 0.13862,0.37312 2.57368,0.37312 2.43658,0 2.48272,-0.007 2.5686,-0.37312 0.048,-0.20522 0.0682,-0.57106 0.0446,-0.81298 l -0.0428,-0.43984 4.47743,-0.0751 c 2.46259,-0.0413 4.57072,-0.0424 4.68472,-0.002 0.12786,0.0449 0.20729,0.38514 0.20729,0.88807 v 0.81533 h 2.57037 2.57038 v -0.82915 -0.82916 h 4.64326 4.64327 v 0.82916 0.82915 h 3.41228 3.41228 l 0.48474,0.48474 c 0.78337,0.78336 0.66075,1.00757 -0.55171,1.00872 -0.57004,4.9e-4 -1.77618,0.11247 -2.6803,0.24874 -0.90412,0.13628 -1.68767,0.22937 -1.74122,0.20687 -0.0535,-0.0225 -11.04841,-0.0601 -24.43303,-0.0835 z m -13.22501,-6.42562 v -1.07791 h -0.82915 -0.82915 v -1.16081 -1.16081 h 3.64827 3.64828 v 1.16081 1.16081 h -0.91207 -0.91207 v 1.07791 1.07789 h -1.90705 -1.90706 z m 14.23189,0.2902 c -0.0163,-0.43324 -0.029,-0.91829 -0.0282,-1.0779 0.001,-0.2365 -0.14693,-0.29021 -0.79959,-0.29021 h -0.80086 v -1.16081 -1.16081 h 3.64828 3.64827 v 1.16081 1.16081 h -0.91207 -0.91207 v 1.07791 1.07789 h -1.90705 -1.90705 z m 14.291,-0.2902 v -1.07791 h -0.91207 -0.91206 v -1.16081 -1.16081 h 3.73119 3.73119 v 1.16081 1.16081 h -0.91207 -0.91207 v 1.07791 1.07789 h -1.90705 -1.90706 z m -27.36443,-8.01136 c -0.70358,-0.56973 -0.28193,-1.85558 0.60847,-1.85558 0.50502,0 1.0522,0.55428 1.0522,1.06587 0,0.40591 -0.67898,1.08993 -1.08189,1.08993 -0.11441,0 -0.37485,-0.1351 -0.57878,-0.30022 z m 26.28511,-1.16986 c -2.61428,-1.18765 -2.77172,-4.94516 -0.26271,-6.26978 1.26727,-0.66903 3.1256,-0.44754 4.13357,0.49268 0.51935,0.48444 0.98915,1.4244 1.11957,2.24003 0.40191,2.51342 -2.58446,4.63007 -4.99043,3.53707 z m 2.22946,-2.87164 c 0.2267,-0.40582 0.22128,-0.47469 -0.0619,-0.7877 -0.74291,-0.8209 -1.9016,-0.0904 -1.44525,0.91115 0.26903,0.59047 1.14867,0.51841 1.50723,-0.12345 z m -15.48341,-2.08685 c -0.55398,-0.18443 -1.12098,-0.56925 -1.75642,-1.19204 -1.16524,-1.14205 -1.55453,-2.15248 -1.46174,-3.79411 0.13271,-2.34828 1.64296,-4.02987 4.0619,-4.52273 3.95126,-0.80509 7.14761,3.36054 5.34562,6.96664 -1.14356,2.28847 -3.74376,3.35648 -6.18936,2.54224 z m 2.44116,-3.20374 c 0.48726,-0.22201 0.94728,-0.97123 0.94728,-1.54277 0,-0.23773 -0.21352,-0.66681 -0.48052,-0.96564 -0.39766,-0.44505 -0.60077,-0.5378 -1.17779,-0.5378 -0.57701,0 -0.78013,0.0928 -1.17778,0.5378 -0.66759,0.74717 -0.64203,1.39922 0.0833,2.12454 0.59372,0.59372 1.10592,0.70263 1.80551,0.38387 z m -15.31688,1.85102 c -0.99829,-0.99828 -0.45795,-2.58999 0.94302,-2.77789 0.58544,-0.0785 0.7549,-0.0247 1.20777,0.38337 0.34353,0.30958 0.56092,0.6895 0.62491,1.09218 0.0871,0.54779 0.0321,0.68346 -0.48667,1.20227 -0.7734,0.77341 -1.58042,0.80869 -2.28903,0.10007 z m 26.22405,-5.64095 c -0.48977,-0.48978 -0.4488,-1.25887 0.0857,-1.60911 0.54414,-0.35653 1.20004,-0.15634 1.55401,0.47429 0.23096,0.41149 0.22363,0.48236 -0.0942,0.90989 -0.43509,0.58527 -1.0899,0.68057 -1.54555,0.22493 z"
         id="path3147" /><g
         id="g14091"
         transform="matrix(0.74834917,0.15759861,-0.15759861,0.74834917,96.719798,7.3399405)"><path
           id="path13550"
           style="fill:#ffffff;fill-opacity:1;fill-rule:evenodd;stroke-width:0;stroke-linecap:round;paint-order:markers stroke fill"
           d="m 81.793457,140.98984 c -31.607494,1.5e-4 -57.230384,17.92516 -57.230615,40.03684 0.01241,16.9772 29.639578,45.0579 35.301137,39.62363 5.661559,-5.43427 -1.598142,-12.68696 -1.603301,-18.87684 -1.21e-4,-11.80208 8.995848,-17.06246 19.848335,-17.06256 10.852689,-2.1e-4 13.616792,5.45863 13.61667,17.26093 -0.004,7.50955 -21.492683,21.57067 -3.031977,23.41425 18.460704,1.84357 50.328324,-23.32195 50.330884,-44.35941 -2.3e-4,-22.11182 -25.62344,-40.03689 -57.231133,-40.03684 z"
           sodipodi:nodetypes="cczccczcc" /><ellipse
           style="fill:#62a0ea;fill-opacity:1;fill-rule:evenodd;stroke-width:0;stroke-linecap:round;paint-order:markers stroke fill"
           id="path13651"
           ry="6.1406641"
           rx="10.561942"
           cy="150.56909"
           cx="85.232422" /><ellipse
           style="fill:#57e389;fill-opacity:1;fill-rule:evenodd;stroke-width:0;stroke-linecap:round;paint-order:markers stroke fill"
           id="path13759"
           ry="6.2634773"
           rx="8.2284899"
           cy="160.51697"
           cx="106.72474" /><ellipse
           style="fill:#f9f06b;fill-opacity:1;fill-rule:evenodd;stroke-width:0;stroke-linecap:round;paint-order:markers stroke fill"
           id="path13813"
           cx="117.16387"
           cy="176.6055"
           rx="11.298821"
           ry="7.3687968" /><ellipse
           style="fill:#e5a50a;fill-opacity:1;fill-rule:evenodd;stroke-width:0;stroke-linecap:round;paint-order:markers stroke fill"
           id="path13867"
           cx="115.19886"
           cy="198.09782"
           rx="9.0881824"
           ry="6.7547302" /><ellipse
           style="fill:#dc8add;fill-opacity:1;fill-rule:evenodd;stroke-width:0;stroke-linecap:round;paint-order:markers stroke fill"
           id="path13921"
           cx="60.301319"
           cy="156.46413"
           rx="9.2109957"
           ry="6.631917" /><ellipse
           style="fill:#613583;fill-opacity:1;fill-rule:evenodd;stroke-width:0;stroke-linecap:round;paint-order:markers stroke fill"
           id="path13975"
           cx="43.967155"
           cy="173.90361"
           rx="9.8250628"
           ry="6.631917" /><ellipse
           style="fill:#cdab8f;fill-opacity:1;fill-rule:evenodd;stroke-width:0;stroke-linecap:round;paint-order:markers stroke fill"
           id="path14029"
           cx="42.98465"
           cy="194.78186"
           rx="7.6144233"
           ry="6.3862906" /></g><path
         style="fill:#ffffff;fill-opacity:1;fill-rule:evenodd;stroke-width:0;stroke-linecap:round;paint-order:markers stroke fill"
         d="m 157.201,179.79865 c 0,0 10.80757,0.49125 35.86148,14.73759 -22.10639,-13.75509 -26.52767,-27.51018 -26.52767,-27.51018 z"
         id="path14201"
         sodipodi:nodetypes="cccc" /><path
         style="fill:#ffffff;fill-opacity:1;fill-rule:evenodd;stroke-width:0;stroke-linecap:round;paint-order:markers stroke fill"
         d="m 196.9925,136.19993 c 0,0 1.35095,21.86077 18.17637,35.37023 -13.11995,-29.47818 20.01857,-64.23135 20.01857,-64.23135 z"
         id="path14201-3"
         sodipodi:nodetypes="cccc" /><path
         style="fill:#ffffff;fill-opacity:1;fill-rule:evenodd;stroke-width:0;stroke-linecap:round;paint-order:markers stroke fill"
         d="m 236.21833,149.93492 c 0.55642,15.73417 16.28779,28.11341 12.96584,37.80181 7.72216,-5.16239 21.40804,-16.64187 21.40804,-16.64187 0,0 -24.85662,-0.0731 -34.37388,-21.15994 z"
         id="path14201-3-1"
         sodipodi:nodetypes="cccc" /><text
         xml:space="preserve"
         style="font-style:italic;font-variant:normal;font-weight:600;font-stretch:normal;font-size:16.9333px;font-family:'Bookman Old Style';-inkscape-font-specification:'Bookman Old Style, Semi-Bold Italic';font-variant-ligatures:normal;font-variant-caps:normal;font-variant-numeric:normal;font-variant-east-asian:normal;fill:#ffffff;fill-opacity:1;fill-rule:evenodd;stroke-width:0;stroke-linecap:round;paint-order:markers stroke fill"
         x="73.17421"
         y="227.41521"
         id="text14313"
         transform="rotate(-37.432906)"><tspan
           sodipodi:role="line"
           id="tspan14311"
           style="font-style:italic;font-variant:normal;font-weight:600;font-stretch:normal;font-size:16.9333px;font-family:'Bookman Old Style';-inkscape-font-specification:'Bookman Old Style, Semi-Bold Italic';font-variant-ligatures:normal;font-variant-caps:normal;font-variant-numeric:normal;font-variant-east-asian:normal;stroke-width:0"
           x="73.17421"
           y="227.41521">Fonts</tspan></text><text
         xml:space="preserve"
         style="font-style:italic;font-variant:normal;font-weight:600;font-stretch:normal;font-size:16.9333px;font-family:'Bookman Old Style';-inkscape-font-specification:'Bookman Old Style, Semi-Bold Italic';font-variant-ligatures:normal;font-variant-caps:normal;font-variant-numeric:normal;font-variant-east-asian:normal;fill:#ffffff;fill-opacity:1;fill-rule:evenodd;stroke-width:0;stroke-linecap:round;paint-order:markers stroke fill"
         x="276.93008"
         y="13.221815"
         id="text14395"
         transform="rotate(29.337973)"><tspan
           sodipodi:role="line"
           id="tspan14393"
           style="stroke-width:0"
           x="276.93008"
           y="13.221815">Logo</tspan></text></g><g
       style="fill:#ffffff;fill-opacity:1"
       id="g1205"
       transform="matrix(3.1770126,0,0,3.1770126,255.3829,45.438753)"><path
         d="m 8.5,5.6 a 0.5,0.5 0 1 0 -1,0 v 2.9 h -3 a 0.5,0.5 0 0 0 0,1 H 8 A 0.5,0.5 0 0 0 8.5,9 Z"
         id="path1193"
         style="fill:#ffffff;fill-opacity:1" /><path
         d="M 6.5,1 A 0.5,0.5 0 0 1 7,0.5 h 2 a 0.5,0.5 0 0 1 0,1 v 0.57 c 1.36,0.196 2.594,0.78 3.584,1.64 L 12.596,3.697 12.95,3.343 12.596,2.99 a 0.50027817,0.50027817 0 0 1 0.707,-0.708 l 1.414,1.415 A 0.5,0.5 0 1 1 14.01,4.404 L 13.657,4.05 13.303,4.404 13.29,4.416 A 7,7 0 1 1 7,2.071 V 1.5 A 0.5,0.5 0 0 1 6.5,1 M 8,3 A 6,6 0 1 0 8.001,15 6,6 0 0 0 8,3"
         id="path1195"
         style="fill:#ffffff;fill-opacity:1" /></g></g></svg>
